<svg width="1300" height="1300" viewBox="0 0 1300 1300" fill="none" xmlns="http://www.w3.org/2000/svg">
<mask id="mask0_412_1272" style="mask-type:alpha" maskUnits="userSpaceOnUse" x="0" y="0" width="1296" height="1296">
<circle cx="647.869" cy="647.869" r="647.869" fill="#D9D9D9"/>
</mask>
<g mask="url(#mask0_412_1272)">
<path d="M1003.04 1182.75C1000.07 1184.87 996.668 1186.99 993.694 1189.12C990.295 1191.24 987.321 1193.37 983.923 1195.07C980.949 1196.76 978.4 1198.46 975.426 1200.16C975.001 1200.59 974.576 1200.59 974.151 1201.01C964.38 1206.96 954.184 1212.48 943.988 1217.58C941.014 1219.28 937.615 1220.98 934.641 1222.26C934.641 1222.26 934.217 1222.68 933.792 1222.68C930.393 1224.38 926.994 1226.08 923.596 1227.78C916.798 1231.18 909.576 1234.15 902.779 1237.12C899.38 1238.82 895.556 1240.1 892.158 1241.37C888.759 1242.65 884.936 1244.35 881.537 1245.62C878.138 1246.9 874.315 1248.59 870.916 1249.87C870.916 1249.87 870.916 1249.87 870.491 1249.87C867.092 1251.14 863.269 1252.42 859.87 1253.69C852.223 1256.24 844.151 1258.79 836.504 1261.34C833.955 1262.19 830.981 1263.04 828.432 1263.89C820.36 1266.44 812.289 1268.56 804.217 1270.26C801.243 1271.11 798.269 1271.54 794.87 1272.39C787.223 1274.09 779.151 1275.78 771.504 1277.48C769.805 1277.91 768.53 1277.91 766.831 1278.33C764.282 1278.76 761.308 1279.18 758.759 1279.61C754.936 1280.03 751.537 1280.88 747.713 1281.31C746.014 1281.73 744.315 1281.73 742.615 1282.16C740.491 1282.58 737.942 1283.01 735.393 1283.01C728.596 1283.86 721.374 1284.71 714.576 1285.56C712.452 1285.98 709.903 1285.98 707.779 1286.41H707.354C704.38 1286.83 701.406 1286.83 698.432 1287.25C695.458 1287.68 692.485 1287.68 689.511 1287.68C687.811 1287.68 685.687 1288.1 683.988 1288.1C680.589 1288.1 677.615 1288.53 674.642 1288.53C670.393 1288.53 666.57 1288.95 662.321 1288.95C658.073 1288.95 654.249 1288.95 650.001 1288.95C647.027 1288.95 644.053 1288.95 641.079 1288.95C461.798 1286.41 300.785 1210.36 185.655 1089.71C185.655 1089.71 185.655 1089.28 185.23 1089.28C172.485 1077.81 183.53 1016.63 234.936 977.974C299.511 929.118 454.151 898.53 454.151 898.53C454.151 898.53 514.053 888.758 736.243 935.066C866.243 962.255 965.23 1001.76 1020.46 1108.82C1031.93 1130.92 1043.4 1164.9 1003.04 1182.75Z" fill="white"/>
<path d="M737.517 930.392C819.086 946.961 906.177 964.804 973.302 1018.76C995.818 1037.03 1010.69 1063.79 1023.01 1089.71C1028.96 1102.45 1034.9 1115.62 1039.58 1129.64C1042.13 1138.99 1045.95 1149.61 1043.82 1160.65C1043.4 1163.63 1040.85 1167.45 1038.73 1169.58C1028.96 1179.35 1018.33 1185.29 1007.71 1192.94C945.262 1236.27 873.465 1266.86 799.119 1283.01C633.432 1319.12 454.151 1291.08 308.432 1203.99C260.001 1174.67 215.393 1138.99 177.158 1096.93C172.909 1091.83 172.909 1083.33 172.909 1077.81C173.334 1065.07 176.733 1052.75 180.981 1041.27C191.177 1014.93 204.347 988.595 226.864 970.327C243.007 959.281 260.426 949.935 278.269 942.288C334.347 918.497 393.4 901.928 454.151 895.131C459.249 894.706 460.099 901.928 455.001 902.778C396.798 914.673 339.021 932.516 285.066 956.732C265.524 966.503 244.707 975 228.988 990.294C214.119 1006.44 203.498 1026.41 195.001 1046.8C189.478 1059.12 185.655 1078.66 187.354 1088.43C214.119 1120.29 245.556 1148.33 279.543 1172.55C465.622 1302.55 748.138 1311.05 946.112 1202.71C963.955 1192.94 981.374 1181.9 997.942 1170.42C1006.01 1164.9 1014.51 1160.23 1020.88 1153.86C1021.31 1153.43 1020.88 1153.86 1020.88 1154.28C1020.88 1154.71 1020.46 1155.13 1020.46 1155.13C1020.88 1150.03 1019.18 1143.24 1017.06 1136.44C1009.41 1111.8 997.093 1085.88 983.923 1063.37C963.106 1029.8 927.844 1008.56 892.158 991.569C867.517 980.098 841.602 971.177 815.262 962.68C788.923 954.183 762.158 946.961 735.393 940.588C728.596 938.889 730.72 929.118 737.517 930.392Z" fill="black"/>
<path d="M1057.24 1243.07C1049.17 1180.2 1013.48 1074.41 991.815 1045.95C968.024 1014.93 958.253 1005.16 878.809 978.398C874.56 957.156 858.841 903.627 840.149 881.11C811.684 838.202 733.939 828.431 710.573 833.529C710.573 833.529 584.822 789.346 439.952 789.346C394.07 799.542 340.966 820.359 312.077 864.117C292.534 893.006 314.626 902.352 304.854 928.692C302.305 935.49 242.828 969.476 218.613 989.869C207.567 998.79 195.247 1021.31 186.75 1050.62C169.756 1110.52 188.024 1193.37 166.782 1265.59C125.998 1404.93 43.155 1446.57 43.155 1446.57H1140.93C1140.08 1446.14 1074.66 1375.62 1057.24 1243.07Z" fill="white"/>
<path d="M1050.87 1243.92C1042.37 1188.27 1025.38 1133.04 1003.71 1081.21C993.091 1056.14 976.948 1031.93 954.431 1017.06C942.961 1009.84 930.216 1004.31 917.046 998.792C903.876 993.693 890.281 989.02 877.111 984.347C874.987 983.497 873.287 981.798 872.863 979.674C871.163 971.177 869.039 963.105 866.49 954.608C855.444 920.197 843.549 881.961 811.261 861.994C786.621 847.125 757.307 839.903 728.843 838.628C723.32 838.628 717.372 838.628 712.274 839.478H710.575C710.15 839.478 709.301 839.478 708.876 839.053C688.484 829.282 665.967 823.334 643.876 817.386C577.601 802.092 508.353 795.72 440.379 795.295C398.745 805.066 340.542 828.007 315.052 870.491C310.804 877.288 308.68 884.086 309.529 891.733C310.379 900.229 313.353 909.576 311.229 918.497C310.379 922.321 309.529 926.569 307.83 929.968C304.431 934.641 298.908 937.615 294.66 940.589C272.569 955.033 250.052 967.778 228.81 982.648C221.588 987.746 214.791 992.419 209.693 999.641C194.823 1020.88 185.902 1046.37 182.078 1071.86C175.281 1123.69 182.078 1176.37 175.281 1228.2C167.634 1280.03 147.667 1330.16 119.627 1374.35C100.085 1404.09 76.294 1431.7 46.1306 1450.82L43.1568 1438.92H1140.93L1136.26 1449.54C1123.52 1435.1 1113.32 1419.38 1103.97 1402.81C1075.08 1354.38 1058.09 1299.58 1050.87 1243.92ZM1063.61 1242.22C1068.29 1278.33 1077.21 1314.02 1090.8 1348.01C1104.4 1381.57 1121.39 1414.28 1145.18 1441.9C1148.58 1445.72 1145.61 1452.94 1140.51 1452.52H42.7319C39.3332 1452.52 36.3594 1449.54 36.3594 1446.14C36.3594 1443.6 37.6339 1441.47 39.7581 1440.62C46.5555 1436.8 53.3528 1431.28 59.7254 1425.75C115.379 1375.62 150.216 1301.28 161.686 1227.35C171.457 1158.11 153.189 1083.33 184.203 1017.48C191.425 1002.19 200.346 986.046 214.791 976.275C241.131 956.733 270.019 942.288 295.935 923.171C296.359 923.171 296.359 922.746 296.359 922.746C295.935 923.171 295.51 924.02 295.51 924.445C298.059 918.497 298.908 913.399 298.059 906.602C296.784 898.105 294.66 886.635 297.634 877.713C298.908 872.615 301.457 867.942 304.006 864.118C334.595 818.236 388.549 797.844 439.954 786.373C454.399 786.798 469.268 784.249 483.712 784.249C503.68 784.249 524.072 787.223 544.039 789.772C601.392 798.693 656.621 813.988 713.124 826.308L709.301 825.883C722.47 823.334 734.791 824.608 747.536 826.308C829.104 838.628 856.719 874.314 878.81 950.36C881.359 958.857 883.484 967.354 885.608 976.275L881.359 971.177C922.144 985.622 968.026 998.791 993.941 1036.6C1003.29 1048.07 1010.08 1061.67 1016.03 1075.26C1037.7 1129.64 1054.69 1184.45 1063.61 1242.22Z" fill="black"/>
<path d="M387.7 963.531C419.138 1030.66 467.995 1087.58 526.197 1132.62C528.321 1134.32 526.197 1137.71 523.648 1136.44C471.818 1111.8 428.06 1069.74 402.145 1018.76C393.648 1001.77 386.426 983.499 383.877 964.381C383.027 962.257 386.426 961.407 387.7 963.531Z" fill="black"/>
<path d="M885.184 977.55C886.459 1048.5 857.57 1121.14 802.341 1167.03C801.066 1168.3 799.367 1167.88 798.093 1166.6C796.818 1165.33 797.243 1163.63 798.517 1162.35C810.838 1150.46 823.158 1138.14 832.504 1123.69C852.047 1095.65 863.942 1062.52 869.465 1028.96C872.014 1012.39 873.713 994.543 872.439 977.975C872.014 969.903 884.759 969.053 885.184 977.55Z" fill="black"/>
<path d="M634.954 1146.21C625.183 1180.62 617.111 1218.01 621.784 1253.69C623.059 1261.77 610.738 1263.89 609.039 1255.39C606.915 1235.85 609.464 1216.73 612.863 1198.04C616.686 1179.35 621.359 1161.5 627.732 1143.66C629.431 1139.41 636.653 1141.54 634.954 1146.21Z" fill="black"/>
<path d="M770.052 1139.84C784.072 1170 793.843 1201.44 801.49 1233.3C802.34 1236.7 800.216 1240.1 796.817 1240.95C793.418 1241.8 790.02 1239.67 789.17 1236.28C784.922 1212.48 779.399 1188.69 771.752 1165.33C769.203 1157.68 766.654 1150.03 763.68 1142.39C761.98 1138.56 767.928 1135.59 770.052 1139.84Z" fill="black"/>
<path d="M313.778 926.994C329.497 1012.81 389.823 1085.46 462.471 1131.77C487.111 1147.48 513.451 1161.08 540.64 1172.12C542.34 1172.97 543.189 1174.67 542.34 1176.37C541.915 1178.07 539.791 1178.92 538.516 1178.07C510.477 1167.88 483.287 1155.13 457.797 1139.84C405.967 1109.25 360.51 1066.77 329.921 1014.94C314.203 988.171 301.882 960.131 295.935 929.543C295.085 924.445 298.484 919.772 303.582 918.922C308.255 917.648 313.353 921.471 313.778 926.994Z" fill="black"/>
<path d="M609.462 1263.04C597.567 1261.77 589.07 1250.72 591.619 1238.82L596.292 1216.31C597.992 1207.39 606.488 1201.01 615.41 1202.29C624.331 1203.14 631.554 1210.79 631.554 1220.13V1243.07C631.978 1254.97 621.782 1264.31 609.462 1263.04Z" fill="black"/>
<path d="M805.314 1247.32C793.843 1251.57 781.523 1244.77 778.549 1232.88L773.026 1210.36C770.902 1201.44 775.575 1192.52 784.497 1189.12C792.993 1186.14 802.765 1189.97 806.588 1198.04L816.784 1218.86C821.882 1230.33 816.784 1243.5 805.314 1247.32Z" fill="black"/>
<path d="M1001.59 1234.58C1001.59 1234.58 1025.38 1367.97 1016.03 1446.14" stroke="black" stroke-width="5.1257" stroke-miterlimit="10" stroke-linecap="round" stroke-linejoin="round"/>
<path d="M446.75 911.7C440.802 894.707 438.253 877.289 439.528 859.446C439.528 857.746 440.802 856.896 442.502 856.896C443.776 856.896 445.051 858.171 445.051 859.446C446.325 875.589 450.998 892.158 458.646 906.178C462.469 914.674 449.724 920.197 446.75 911.7Z" fill="black"/>
<path d="M733.939 934.217C722.044 907.452 692.73 893.857 666.815 884.511C650.671 879.413 632.828 875.589 615.835 873.04C574.626 866.668 516.423 856.896 475.214 852.648C474.789 852.648 474.789 851.798 475.214 851.798C487.109 850.524 499.005 850.524 510.9 850.524C546.586 851.374 582.273 855.197 617.534 860.72C652.796 866.243 690.606 876.864 717.371 902.354C725.867 911.276 733.515 921.472 735.639 933.792C736.064 935.066 734.364 935.491 733.939 934.217Z" fill="black"/>
<path d="M777.448 1043.4C768.527 1087.16 710.749 1113.5 613.461 1073.99C512.35 1033.2 468.592 935.915 457.546 907.027C517.448 794.87 475.814 717.125 475.814 717.125C613.886 705.229 734.54 866.667 734.54 866.667L753.233 946.536C754.932 953.334 758.331 959.281 763.429 963.53C772.35 979.249 782.971 1015.36 777.448 1043.4Z" fill="white"/>
<path d="M455.424 908.301C463.496 895.981 468.594 881.536 471.993 867.517C478.365 838.203 480.489 808.465 480.914 778.726V767.68C479.64 756.634 475.816 745.164 471.568 734.968C466.045 721.373 486.012 712.876 492.385 726.471C493.234 728.17 493.234 731.144 493.234 732.844C494.509 790.621 497.058 864.968 460.522 912.974C457.973 915.523 452.875 911.7 455.424 908.301Z" fill="black"/>
<path d="M739.213 865.818C745.586 869.641 747.71 874.739 748.56 879.837C751.109 890.033 750.259 901.079 752.808 911.7C754.932 921.896 761.305 931.667 763.004 942.288C765.129 953.334 771.501 976.7 774.05 988.171C774.9 990.72 773.2 993.693 770.227 994.118C768.527 994.543 767.253 994.118 765.978 993.269C760.455 988.595 757.906 983.922 754.508 977.974C748.985 967.778 745.161 958.432 741.763 946.961C738.789 936.765 740.063 925.72 737.514 915.099C735.39 904.903 729.442 895.131 727.318 884.51C726.044 879.412 725.619 873.89 729.442 867.517C731.991 864.968 736.24 864.118 739.213 865.818Z" fill="black"/>
<path d="M769.803 977.974C688.659 973.726 622.385 948.236 557.81 833.105C612.189 881.112 676.339 899.379 743.888 907.876L752.81 946.961C754.509 953.759 764.705 973.726 769.803 977.974Z" fill="black"/>
<path d="M766.406 962.255C780.851 989.445 789.347 1023.43 780.426 1053.6C773.628 1074.84 754.086 1090.56 732.844 1096.5C683.563 1109.67 626.635 1088.86 582.877 1065.49C528.922 1035.33 488.988 984.772 463.498 929.543C461.798 925.295 467.746 921.896 470.295 926.144C479.217 943.987 489.413 961.406 500.883 977.125C512.354 993.268 525.524 1008.14 540.393 1021.31C583.726 1060.39 642.354 1084.61 700.981 1084.61C761.308 1082.91 784.249 1051.05 770.23 992.419C768.105 983.072 764.707 973.301 760.034 965.229C757.485 961.83 763.857 958.007 766.406 962.255Z" fill="black"/>
<path d="M930.816 452.027C938.463 487.713 942.287 516.602 921.47 611.765C901.078 706.504 950.783 726.046 833.104 877.713C785.097 939.739 668.692 922.321 574.378 858.17C542.516 836.504 528.921 780.85 505.13 741.34C486.437 710.327 477.94 742.615 453.3 715.85C419.738 679.314 379.378 605.818 399.346 475.818C431.633 265.099 598.594 240.458 722.221 263.824C846.698 287.615 910.424 358.138 930.816 452.027Z" fill="white"/>
<path d="M474.542 753.66C464.77 737.092 452.025 722.647 440.13 707.353C428.659 691.634 419.313 674.216 411.666 656.373C361.11 532.321 380.653 357.713 504.705 284.641C556.11 254.902 618.136 247.68 675.914 252.353C799.542 261.275 912.973 318.203 939.738 449.053C954.182 506.83 934.64 566.308 923.594 622.811C918.496 650.85 922.744 679.739 922.319 708.628C921.895 737.942 913.823 767.255 902.777 794.445C895.979 813.138 884.084 829.706 871.764 845C851.372 869.641 830.979 894.706 805.064 913.824C799.117 918.072 788.496 920.196 781.274 921.046C761.306 924.02 741.764 924.87 721.796 923.595C643.627 920.196 559.934 882.386 528.496 806.765C527.221 803.791 531.47 801.667 533.169 804.216C573.953 868.791 648.725 900.654 723.071 904.902C746.012 906.177 769.378 905.752 791.894 901.079C802.94 895.556 812.711 885.785 822.058 876.863C844.999 853.922 868.365 829.281 884.934 801.242C904.901 763.432 915.947 722.223 912.548 679.314C911.698 660.196 911.274 640.229 915.097 621.111C918.496 601.994 922.744 583.726 925.293 564.183C927.842 545.491 929.117 526.373 929.117 507.68C926.993 452.876 909.149 396.373 874.313 353.889C797.417 258.301 615.587 233.236 513.202 298.661C448.627 338.595 418.463 413.366 408.692 486.013C393.823 573.105 398.071 658.922 467.319 722.223L487.712 743.464C495.783 752.811 481.339 763.857 474.542 753.66Z" fill="black"/>
<path d="M524.671 618.562C524.671 618.562 511.501 554.837 449.475 562.484C395.945 569.281 377.252 697.582 498.756 733.268" fill="white"/>
<path d="M493.234 677.615C483.463 672.092 476.666 662.746 476.241 651.275C476.666 642.778 477.94 633.007 475.816 624.51C474.542 616.438 466.045 614.314 459.672 614.739C452.875 616.014 448.627 624.51 447.352 631.308C447.352 631.733 446.927 633.007 446.927 633.432C446.502 635.556 443.104 635.556 442.254 633.432C436.731 616.863 449.051 598.595 466.895 600.72C491.96 602.419 495.359 628.759 490.685 648.726C488.136 657.223 491.535 664.87 496.208 672.092L497.058 673.367C499.182 675.916 495.783 679.314 493.234 677.615Z" fill="black"/>
<path d="M833.103 573.53C839.475 603.693 851.371 631.732 866.24 658.072C879.41 690.36 845.423 720.948 815.26 719.673C811.861 719.673 811.436 715 814.41 714.151C833.528 708.203 850.946 695.458 853.92 675.915C855.194 669.968 853.495 664.87 850.521 659.772C836.501 633.432 828.005 603.268 830.129 573.53C830.129 571.405 833.103 571.405 833.103 573.53Z" fill="black"/>
<path d="M522.548 618.988C512.777 593.922 491.535 570.131 463.071 570.556C460.522 570.131 456.274 570.981 453.725 570.981C446.502 571.406 440.555 573.955 435.032 579.053C407.842 606.242 412.516 654.249 434.607 684.412C442.254 695.033 452.025 704.38 463.071 712.027C474.117 719.674 486.437 725.622 499.607 730.72C502.581 731.569 501.306 736.242 498.333 735.818C469.868 729.87 442.679 715.85 423.986 692.484C395.097 657.648 389.149 599.445 423.561 565.458C431.208 558.661 441.829 553.563 452.45 553.563C455.849 553.563 460.947 552.713 464.346 553.563C482.189 554.412 499.182 563.334 510.228 577.354C519.999 589.249 525.522 603.693 527.221 618.138C527.221 620.687 523.398 621.537 522.548 618.988Z" fill="black"/>
<path d="M787.044 756.457C787.469 763.255 782.371 775.15 773.024 783.647C725.018 754.333 703.351 769.627 703.351 769.627C686.358 743.712 690.181 708.451 731.39 735.215C759.854 753.908 777.697 756.882 787.044 756.457Z" fill="black"/>
<path d="M772.599 784.072C762.403 792.993 747.109 798.516 726.292 790.019C716.521 786.196 708.874 778.549 702.926 770.052C703.351 770.052 724.593 754.758 772.599 784.072Z" fill="white"/>
<path d="M795.116 755.183C795.116 755.183 777.273 764.954 731.39 735.64C676.586 700.379 687.632 774.3 726.292 790.019C766.652 806.588 787.469 770.477 787.044 756.882" stroke="black" stroke-width="3" stroke-miterlimit="10" stroke-linecap="round" stroke-linejoin="round"/>
<path d="M703.353 770.052C703.353 770.052 725.02 754.758 773.026 784.072" stroke="black" stroke-width="3" stroke-miterlimit="10" stroke-linecap="round" stroke-linejoin="round"/>
<path d="M674.641 616.863C664.445 616.438 656.798 607.941 657.648 597.745L658.073 585.85C658.498 575.654 666.994 568.007 677.19 568.856C687.386 569.281 695.034 577.778 694.184 587.974L693.759 599.87C693.334 609.641 684.838 617.288 674.641 616.863Z" fill="black"/>
<path d="M853.497 623.236C844.15 622.811 836.928 614.739 837.353 605.393L837.778 594.347C838.202 585.001 846.274 577.779 855.621 578.203C864.967 578.628 872.189 586.7 871.764 596.046L871.34 607.092C870.915 616.439 862.843 623.661 853.497 623.236Z" fill="black"/>
<path d="M712.877 593.922C698.857 584.576 683.563 578.203 666.57 581.602C661.047 582.451 655.524 584.151 652.125 587.974C650.851 589.674 647.877 589.249 647.877 586.7C648.302 578.203 655.524 572.68 662.321 569.281C675.491 562.484 693.759 563.759 705.655 572.68C709.903 575.229 724.348 590.948 716.7 594.347C715.001 595.196 714.151 594.772 712.877 593.922Z" fill="black"/>
<path d="M834.38 596.046C834.38 578.203 856.472 571.83 870.066 578.203C877.714 581.602 883.236 588.399 885.361 596.471C886.21 599.02 882.387 601.144 880.687 599.02C873.465 590.523 861.145 586.275 851.374 591.373C848.4 593.072 847.975 594.347 847.125 596.046C847.125 604.543 834.805 604.118 834.38 596.046Z" fill="black"/>
<path d="M733.269 523.824C742.191 526.798 751.112 518.726 749.413 508.955C748.563 503.857 746.439 498.759 742.191 494.935C729.445 483.464 676.766 473.268 644.903 488.138C616.864 501.732 692.485 510.229 733.269 523.824Z" fill="black"/>
<path d="M860.297 530.621C853.074 533.17 845.427 525.523 846.702 516.602C847.127 511.928 848.826 507.255 852.225 503.857C862.421 493.66 897.257 485.589 919.349 501.308C938.467 514.477 893.434 518.301 860.297 530.621Z" fill="black"/>
<path d="M881.113 327.974C859.446 308.007 832.256 288.464 799.119 275.294C700.982 235.36 609.642 236.634 537.845 267.647C535.72 226.013 524.675 162.288 475.819 151.667C401.897 135.098 427.387 215.817 450.328 266.373C450.328 266.373 361.962 187.353 323.302 240.882C286.341 292.288 378.956 348.366 378.956 348.366C378.956 348.366 241.734 359.412 270.622 437.582C287.616 482.614 344.544 467.745 390.002 447.353C353.041 593.922 417.191 693.758 450.328 733.693C484.315 774.477 487.289 805.49 487.289 805.49C504.707 795.719 483.89 751.961 484.74 729.02C378.531 688.235 397.649 569.706 449.479 562.909C503.858 556.111 520.851 604.543 523.825 616.438C543.368 593.072 543.368 570.556 539.544 547.19C524.675 461.797 533.171 415.49 584.577 404.445C666.57 386.601 740.492 428.235 838.204 441.405C874.315 446.503 896.832 413.366 923.596 425.262C926.57 434.183 929.119 443.105 931.243 452.451C932.943 459.673 934.217 466.471 935.067 473.693C939.315 414.216 926.995 370.458 881.113 327.974Z" fill="black"/>
<path d="M739.467 669.543C719.925 669.968 659.598 670.392 640.905 670.817C608.618 671.242 584.402 643.203 587.376 611.34C587.801 600.719 587.376 585.85 587.801 575.229C588.65 547.614 613.291 524.248 640.905 525.098L712.703 525.948C718.226 525.948 733.944 526.373 739.467 526.373C762.409 525.948 784.075 542.941 789.173 565.458C790.873 571.83 790.448 578.628 790.448 584.15V620.262C790.023 647.026 766.232 669.968 739.467 669.543ZM739.467 660.196C761.559 661.046 781.951 641.928 782.376 619.837C782.801 608.366 782.376 596.046 782.376 584.15C784.925 558.235 765.382 534.445 739.042 535.294C720.775 535.719 659.598 536.144 640.48 536.569C617.539 536.569 597.997 557.386 599.696 580.327C599.696 583.301 599.696 590.948 599.696 593.922C600.121 603.268 598.846 619.412 600.971 627.909C605.219 645.752 622.212 659.347 640.48 659.347H649.402C661.722 659.347 726.722 660.196 739.467 660.196Z" fill="black"/>
<path d="M910.675 537.419L877.113 537.844C867.766 538.268 856.72 536.569 848.649 542.092C841.002 547.19 837.603 556.536 838.028 565.458C838.028 576.504 838.028 587.974 837.603 599.02L837.178 597.321C843.126 618.138 851.198 638.105 863.518 655.523L859.269 652.974C862.668 653.824 868.616 653.824 872.015 653.824C884.76 654.249 899.629 655.099 912.374 655.099C924.27 655.099 935.74 646.177 938.289 634.282C939.139 630.883 939.139 624.935 939.139 621.536C939.139 603.268 939.564 585.425 938.714 567.157C939.564 551.014 927.243 536.569 910.675 537.419ZM910.675 524.674C933.191 524.674 948.91 546.34 945.086 567.582C944.237 585.85 944.662 603.693 944.662 621.961C946.786 643.203 934.041 662.321 911.949 664.02C902.603 664.445 893.681 664.445 884.76 664.87C880.086 664.87 868.616 665.719 864.368 665.719C862.243 666.144 858.845 665.719 856.721 665.719C855.021 665.719 853.322 664.445 852.472 663.17C839.302 643.628 829.956 621.961 824.433 599.445C824.433 585.001 823.158 570.556 824.433 556.112C826.982 539.118 842.276 524.674 859.694 524.249C871.59 523.824 898.779 524.674 910.675 524.674Z" fill="black"/>
<path d="M785.773 563.759C797.243 558.661 809.989 556.537 822.734 557.386C826.982 557.811 831.23 559.086 835.054 562.484L840.577 567.157C846.1 571.831 839.302 579.903 833.779 575.229C826.982 569.282 818.91 570.131 810.838 570.556C802.766 571.406 795.119 573.105 787.472 576.079C780.25 579.053 775.577 568.432 782.374 565.033C782.374 565.033 785.773 563.759 785.773 563.759Z" fill="black"/>
<path d="M594.596 579.053C591.623 585.85 588.224 586.7 582.701 586.275L570.381 586.7C545.74 586.7 520.675 586.275 496.034 582.451C487.538 582.027 487.113 570.131 495.609 569.706L594.172 566.308C597.145 566.308 599.27 569.281 597.995 571.831L594.596 579.053Z" fill="black"/>
<path d="M1224.38 358.137C1482.25 854.771 1028.95 1415.13 488.562 1278.33C245.98 1218.01 50.9803 1007.71 10.6208 760.882C-35.2615 515.327 75.6208 251.503 282.941 112.582C567.157 -82.8433 960.98 -17.8433 1164.48 261.699C1165.75 262.974 1165.33 265.098 1163.63 266.372C1162.35 267.647 1160.23 267.222 1158.95 265.523C1130.91 229.412 1099.05 196.699 1064.22 167.385C1006.86 118.529 939.738 80.2939 868.791 54.3789C507.68 -76.4708 111.307 141.046 32.2875 518.725C-56.9282 941.863 302.908 1331.44 731.993 1273.24C1062.94 1231.6 1308.92 926.144 1281.73 593.921C1275.78 513.627 1254.54 434.183 1219.28 361.111C1218.43 359.836 1219.28 358.137 1220.56 357.287C1221.83 356.438 1223.53 356.863 1224.38 358.137Z" fill="black"/>
<path d="M477.092 631.732C477.092 631.732 443.105 626.634 445.654 674.216C446.928 698.431 446.928 711.601 446.503 718.399C446.078 723.072 449.052 727.32 453.301 729.02C458.399 731.144 463.922 729.02 466.471 723.922C470.294 717.124 474.543 707.778 474.543 700.131C474.543 687.386 488.137 675.915 488.137 675.915C488.137 675.915 475.817 665.294 477.092 631.732Z" fill="white"/>
<path d="M475.817 633.007C475.817 633.432 476.242 633.856 476.667 633.856C476.667 633.856 476.667 633.856 476.242 633.856H475.392C455 635.556 448.627 653.399 449.477 671.667C449.902 683.562 450.752 695.458 450.327 706.928C451.176 713.301 447.353 721.798 453.725 725.196C457.549 727.32 462.647 725.621 464.346 721.373C468.17 713.726 471.993 706.079 471.993 697.582C473.693 687.811 480.065 680.164 486.863 674.216V677.615C477.941 668.268 475.817 655.523 474.542 643.628C474.967 640.654 474.967 635.981 475.817 633.007ZM478.791 630.033C480.065 641.928 480.065 654.249 485.163 664.869C486.438 667.843 488.562 671.242 491.111 673.366C492.81 674.641 492.81 677.19 491.111 678.464C485.163 683.987 480.065 690.785 479.216 698.432C479.216 707.778 475.392 716.7 471.144 724.771C467.745 731.994 457.974 735.817 450.752 731.569C446.078 729.02 442.68 723.922 442.68 718.399C442.68 714.151 443.105 710.752 443.105 706.503C443.105 694.608 442.255 683.137 441.83 671.242C441.83 663.595 442.255 654.673 445.654 647.026C449.902 635.131 463.072 627.059 475.817 629.183C477.092 629.183 478.366 629.608 478.791 630.033Z" fill="black"/>
<path d="M471.569 1134.74C485.588 1073.56 467.32 1004.74 451.601 943.562C445.229 919.347 438.856 896.405 435.882 876.438C430.36 842.876 434.183 811.013 447.778 781.275C464.346 744.314 461.797 712.876 461.797 711.602L453.301 712.451C453.301 712.876 455.85 743.464 440.131 777.876C426.111 808.889 421.863 842.451 427.386 877.713C430.784 898.105 436.732 921.471 443.105 945.687C458.824 1005.59 476.667 1073.56 463.072 1132.61C455.425 1165.33 470.294 1218.86 491.536 1272.39C494.935 1272.81 497.909 1273.24 501.307 1273.66C479.641 1220.13 464.346 1166.18 471.569 1134.74Z" fill="black"/>
<path d="M446.928 698.856C447.353 708.203 446.928 714.575 446.928 718.399C446.503 723.072 449.477 727.321 453.725 729.02C458.823 731.144 464.346 729.02 466.895 723.922C470.719 717.124 474.967 707.778 474.967 700.131C474.967 699.706 474.967 698.856 474.967 698.432C466.471 701.83 456.274 704.379 446.928 698.856Z" fill="white"/>
<path d="M448.203 700.556C448.627 706.504 449.052 712.026 449.052 717.974C448.627 720.523 449.477 723.072 451.176 725.196C456.699 730.719 464.346 727.321 466.471 720.523C469.869 713.726 472.843 706.504 472.843 698.857L475.817 700.981C466.471 702.68 456.699 705.229 447.778 701.406C447.778 701.406 448.203 700.981 448.203 700.556ZM446.078 696.732C446.928 696.732 448.627 697.157 449.477 698.007C457.124 703.53 466.895 700.981 474.542 696.732C475.817 695.883 477.941 697.157 477.516 698.857C477.091 708.628 473.268 717.974 468.17 726.471C463.497 732.843 453.725 733.268 448.203 727.745C445.654 725.196 444.379 720.948 444.804 717.549C444.804 710.327 445.654 703.53 446.078 696.732Z" fill="black"/>
<path d="M847.124 981.372C854.346 931.242 847.549 895.555 845 884.935C843.726 885.784 842.876 887.059 841.601 887.908C840.327 889.183 839.052 890.033 837.778 891.307C840.327 904.902 845 937.189 838.627 980.098C835.654 1000.07 834.804 1031.5 834.379 1068.04C833.529 1103.3 822.484 1191.24 809.314 1274.51C812.288 1273.66 815.261 1272.81 818.235 1272.39C831.405 1189.97 842.026 1103.73 842.876 1068.46C843.726 1031.93 844.15 1000.91 847.124 981.372Z" fill="black"/>
</g>
</svg>
